# 3ds Max Wavefront OBJ Exporter v0.97b - (c)2007 guruware
# File Created: 15.09.2019 15:41:27

mtllib study table.mtl

#
# object Box3692
#

v  6.5804 3.0000 -49.8784
v  6.5804 3.0000 -27.1831
v  -9.9196 3.0000 -27.1831
v  -9.9196 3.0000 -49.8784
v  6.5804 24.0000 -49.8784
v  -9.9196 24.0000 -49.8784
v  -9.9196 24.0000 -27.1831
v  6.5804 24.0000 -27.1831
v  -9.9196 23.8117 -49.7267
v  -11.4196 23.8117 -49.7267
v  -11.4196 23.8117 -27.3455
v  -9.9196 23.8117 -27.3455
v  -9.9196 3.0000 -49.7267
v  -9.9196 3.0000 -27.3455
v  -11.4196 3.0000 -27.3455
v  -11.4196 3.0000 -49.7267
v  6.5960 28.0000 -27.1831
v  -9.9196 28.0000 -27.1831
v  -9.9196 23.9999 -27.1831
v  6.5960 23.9999 -27.1831
v  6.5960 28.0000 -95.2613
v  6.5960 23.9999 -95.2613
v  -9.9195 28.0000 -95.2613
v  -9.9195 23.9999 -95.2613
v  -9.9196 24.1737 -49.9219
v  -11.4196 24.1737 -49.9218
v  -11.4196 24.1737 -72.4738
v  -9.9196 24.1737 -72.4738
v  -11.4196 27.8260 -49.9219
v  -9.9196 27.8260 -49.9218
v  -9.9196 27.8260 -72.4738
v  -11.4196 27.8260 -72.4738
v  -9.9195 24.1737 -95.0914
v  -11.4195 24.1737 -95.0914
v  -11.4195 27.8260 -95.0914
v  -9.9195 27.8260 -95.0914
v  -11.4196 24.1737 -27.3455
v  -9.9196 24.1737 -27.3455
v  -9.9196 27.8260 -27.3455
v  -11.4196 27.8260 -27.3455
v  -11.4196 24.1737 -49.7267
v  -9.9196 24.1737 -49.7267
v  -9.9196 24.1737 -72.6690
v  -11.4196 24.1737 -72.6690
v  -9.9196 27.8260 -49.7267
v  -11.4196 27.8260 -49.7267
v  -11.4196 27.8260 -72.6690
v  -9.9196 27.8260 -72.6690
v  6.5960 30.0000 -27.1831
v  -11.4196 30.0000 -27.1831
v  -11.4196 28.0000 -27.1831
v  6.5960 30.0000 -95.2613
v  -11.4195 30.0000 -95.2613
v  -11.4195 28.0000 -95.2613
v  -8.4352 -0.0000 -27.1831
v  -8.4352 -0.0000 -49.8784
v  6.5804 -0.0000 -49.8784
v  6.5804 -0.0000 -27.1831
v  -8.4352 3.0000 -27.1831
v  -8.4352 3.0000 -49.8784
# 60 vertices

vn 0.0000 -1.0000 0.0000
vn -0.0000 1.0000 -0.0000
vn 0.0000 -0.0000 -1.0000
vn -1.0000 -0.0000 -0.0000
vn -0.0000 0.0000 1.0000
vn 1.0000 0.0000 0.0000
vn 0.0000 1.0000 -0.0000
vn -0.0000 -0.0000 -1.0000
vn -1.0000 0.0000 -0.0000
vn -0.0000 -0.0000 1.0000
vn -0.0000 -1.0000 0.0000
vn 0.0000 0.0000 -1.0000
# 12 vertex normals

vt 0.1536 -0.0477 0.4590
vt 0.8839 -0.0477 0.4590
vt 0.8839 0.9060 0.4590
vt 0.1536 0.9060 0.4590
vt 0.8464 -0.0477 1.6079
vt 0.8464 0.9060 1.6079
vt 0.1161 0.9060 1.6079
vt 0.1161 -0.0477 1.6079
vt -0.0477 0.4590 0.8464
vt 0.9060 0.4590 0.8464
vt 0.9060 1.6079 0.8464
vt -0.0477 1.6079 0.8464
vt 0.1536 0.4590 0.9060
vt 0.8839 0.4590 0.9060
vt 0.8839 1.6079 0.9060
vt 0.1536 1.6079 0.9060
vt 0.0940 0.4590 0.1161
vt 1.0477 0.4590 0.1161
vt 1.0477 1.6079 0.1161
vt 0.0940 1.6079 0.1161
vt 0.1161 0.4590 -0.0477
vt 0.8464 0.4590 -0.0477
vt 0.8464 1.6079 -0.0477
vt 0.1161 1.6079 -0.0477
vt 0.8415 0.9059 1.5976
vt 0.8415 0.9926 1.5976
vt 0.1213 0.9926 1.5976
vt 0.1213 0.9059 1.5976
vt 0.1585 0.9059 0.4590
vt 0.8787 0.9059 0.4590
vt 0.8787 0.9926 0.4590
vt 0.1585 0.9926 0.4590
vt 0.9059 1.5976 0.8415
vt 0.9059 0.4590 0.8415
vt 0.9926 0.4590 0.8415
vt 0.9926 1.5976 0.8415
vt 0.1585 1.5976 0.9926
vt 0.1585 0.4590 0.9926
vt 0.8787 0.4590 0.9926
vt 0.8787 1.5976 0.9926
vt 0.0074 1.5976 0.1213
vt 0.0074 0.4590 0.1213
vt 0.0941 0.4590 0.1213
vt 0.0941 1.5976 0.1213
vt 0.1213 1.5976 0.9059
vt 0.1213 0.4590 0.9059
vt 0.8415 0.4590 0.9059
vt 0.8415 1.5976 0.9059
vt 1.0486 1.8267 0.1161
vt 0.0941 1.8267 0.1161
vt 0.0941 1.6079 0.1161
vt 1.0486 1.6079 0.1161
vt 2.3067 1.8267 -0.0486
vt 0.1161 1.8267 -0.0486
vt 0.1161 1.6079 -0.0486
vt 2.3067 1.6079 -0.0486
vt 0.9059 1.8267 2.3067
vt -0.0486 1.8267 2.3067
vt -0.0486 1.6079 2.3067
vt 0.9059 1.6079 2.3067
vt 0.8839 1.8267 0.9059
vt -1.3067 1.8267 0.9059
vt -1.3067 1.6079 0.9059
vt 0.8839 1.6079 0.9059
vt -1.3067 -0.0486 1.6079
vt 0.8839 -0.0486 1.6079
vt 0.8839 0.9059 1.6079
vt -1.3067 0.9059 1.6079
vt 0.1161 0.9059 1.8267
vt 0.1161 -0.0486 1.8267
vt 2.3067 -0.0486 1.8267
vt 2.3067 0.9059 1.8267
vt 0.1522 0.9059 1.6174
vt 0.1522 0.9926 1.6174
vt -0.5735 0.9926 1.6174
vt -0.5735 0.9059 1.6174
vt 0.8478 0.9926 1.8172
vt 0.8478 0.9059 1.8172
vt 1.5735 0.9059 1.8172
vt 1.5735 0.9926 1.8172
vt 0.9059 1.6174 2.3012
vt 0.9926 1.6174 2.3012
vt 0.9926 1.8172 2.3012
vt 0.9059 1.8172 2.3012
vt 0.1522 1.6174 0.9926
vt 0.1522 1.8172 0.9926
vt -0.5735 1.8172 0.9926
vt -0.5735 1.6174 0.9926
vt 0.0074 1.6174 0.1213
vt 0.0941 1.6174 0.1213
vt 0.0941 1.8172 0.1213
vt 0.0074 1.8172 0.1213
vt 1.5735 1.6174 0.9059
vt 1.5735 1.8172 0.9059
vt 0.8478 1.8172 0.9059
vt 0.8478 1.6174 0.9059
vt 0.8787 0.9059 1.6174
vt 0.8787 0.9926 1.6174
vt 0.1585 0.9926 1.6174
vt 0.1585 0.9059 1.6174
vt -1.3012 0.9926 1.6174
vt -1.3012 0.9059 1.6174
vt -0.5797 0.9059 1.6174
vt -0.5797 0.9926 1.6174
vt 0.1213 0.9926 1.8172
vt 0.1213 0.9059 1.8172
vt 0.8415 0.9059 1.8172
vt 0.8415 0.9926 1.8172
vt 2.3012 0.9059 1.8172
vt 2.3012 0.9926 1.8172
vt 1.5797 0.9926 1.8172
vt 1.5797 0.9059 1.8172
vt 0.8787 1.6174 0.9926
vt 0.8787 1.8172 0.9926
vt 0.1585 1.8172 0.9926
vt 0.1585 1.6174 0.9926
vt -1.3012 1.8172 0.9926
vt -1.3012 1.6174 0.9926
vt -0.5797 1.6174 0.9926
vt -0.5797 1.8172 0.9926
vt 2.3012 1.6174 0.9059
vt 2.3012 1.8172 0.9059
vt 1.5797 1.8172 0.9059
vt 1.5797 1.6174 0.9059
vt 0.1213 1.8172 0.9059
vt 0.1213 1.6174 0.9059
vt 0.8415 1.6174 0.9059
vt 0.8415 1.8172 0.9059
vt 0.0941 1.8172 0.8478
vt 0.0074 1.8172 0.8478
vt 0.0074 1.6174 0.8478
vt 0.0941 1.6174 0.8478
vt 0.9926 1.8172 1.5735
vt 0.9059 1.8172 1.5735
vt 0.9059 1.6174 1.5735
vt 0.9926 1.6174 1.5735
vt 0.9926 1.8172 0.8415
vt 0.9059 1.8172 0.8415
vt 0.9059 1.6174 0.8415
vt 0.9926 1.6174 0.8415
vt 0.0941 1.8172 1.5797
vt 0.0074 1.8172 1.5797
vt 0.0074 1.6174 1.5797
vt 0.0941 1.6174 1.5797
vt 1.0486 1.9361 0.1161
vt 0.0074 1.9361 0.1161
vt 0.0074 1.8267 0.1161
vt 2.3067 1.9361 -0.0486
vt 0.1161 1.9361 -0.0486
vt 0.9926 1.9361 2.3067
vt -0.0486 1.9361 2.3067
vt 0.9926 1.8267 2.3067
vt 0.8839 1.9361 0.9926
vt -1.3067 1.9361 0.9926
vt -1.3067 1.8267 0.9926
vt 0.8839 1.8267 0.9926
vt -1.3067 -0.0486 1.8267
vt 0.8839 -0.0486 1.8267
vt 0.8839 0.9926 1.8267
vt -1.3067 0.9926 1.8267
vt 0.1161 0.9926 1.9361
vt 0.1161 -0.0486 1.9361
vt 2.3067 -0.0486 1.9361
vt 2.3067 0.9926 1.9361
vt 0.8839 0.8202 0.2948
vt 0.1536 0.8202 0.2948
vt 0.1536 -0.0477 0.2948
vt 0.8839 -0.0477 0.2948
vt 0.1161 0.8202 0.4590
vt 0.1161 -0.0477 0.4590
vt 0.8464 -0.0477 0.4590
vt 0.8464 0.8202 0.4590
vt 0.8202 0.4590 0.8464
vt -0.0477 0.2948 0.8464
vt 0.8202 0.2948 0.8464
vt 0.8839 0.4590 0.8202
vt 0.1536 0.4590 0.8202
vt 0.1536 0.2948 0.8202
vt 0.8839 0.2948 0.8202
vt 0.1798 0.4590 0.1161
vt 0.1798 0.2948 0.1161
vt 1.0477 0.2948 0.1161
vt 0.1161 0.2948 -0.0477
vt 0.8464 0.2948 -0.0477
# 184 texture coords

g Box3692
usemtl wire_028149177
s 2
f 1/1/1 2/2/1 3/3/1 4/4/1 
s 4
f 5/5/2 6/6/2 7/7/2 8/8/2 
s 8
f 1/9/3 4/10/3 6/11/3 5/12/3 
s 16
f 4/13/4 3/14/4 7/15/4 6/16/4 
s 32
f 3/17/5 2/18/5 8/19/5 7/20/5 
s 64
f 2/21/6 1/22/6 5/23/6 8/24/6 
s 2
f 9/25/2 10/26/2 11/27/7 12/28/7 
s 4
f 13/29/1 14/30/1 15/31/1 16/32/1 
s 8
f 9/33/3 13/34/3 16/35/3 10/36/3 
s 16
f 10/37/4 16/38/4 15/39/4 11/40/4 
s 32
f 11/41/5 15/42/5 14/43/5 12/44/5 
s 64
f 12/45/6 14/46/6 13/47/6 9/48/6 
s 1
f 17/49/5 18/50/5 19/51/5 20/52/5 
s 4
f 21/53/6 17/54/6 20/55/6 22/56/6 
s 2
f 23/57/8 21/58/3 22/59/3 24/60/8 
s 4
f 18/61/4 23/62/9 24/63/9 19/64/4 
s 16
f 22/65/1 20/66/1 19/67/1 24/68/1 
f 18/69/2 17/70/2 21/71/2 23/72/2 
s 1
f 25/73/1 26/74/1 27/75/1 28/76/1 
f 29/77/7 30/78/7 31/79/7 32/80/7 
s 2
f 33/81/3 34/82/3 35/83/3 36/84/3 
s 4
f 26/85/9 29/86/9 32/87/9 27/88/9 
s 2
f 37/89/10 38/90/10 39/91/10 40/92/10 
s 4
f 28/93/6 31/94/6 30/95/6 25/96/6 
s 1
f 38/97/11 37/98/11 41/99/1 42/100/1 
f 34/101/1 33/102/1 43/103/1 44/104/1 
f 40/105/2 39/106/2 45/107/7 46/108/7 
f 36/109/2 35/110/2 47/111/7 48/112/7 
s 4
f 37/113/4 40/114/4 46/115/9 41/116/9 
f 35/117/9 34/118/9 44/119/9 47/120/9 
f 33/121/6 36/122/6 48/123/6 43/124/6 
f 39/125/6 38/126/6 42/127/6 45/128/6 
s off
f 30/129/5 29/130/5 26/131/5 25/132/5 
f 32/133/3 31/134/3 28/135/3 27/136/3 
f 46/137/3 45/138/3 42/139/3 41/140/3 
f 48/141/5 47/142/5 44/143/5 43/144/5 
s 1
f 49/145/5 50/146/5 51/147/5 17/49/5 
s 4
f 52/148/6 49/149/6 17/54/6 21/53/6 
s 2
f 53/150/3 52/151/3 21/58/3 54/152/3 
s 4
f 50/153/4 53/154/4 54/155/4 51/156/4 
s 16
f 21/157/1 17/158/1 51/159/1 54/160/1 
f 50/161/2 49/162/2 52/163/2 53/164/2 
s 2
f 55/165/1 56/166/1 57/167/1 58/168/1 
s 4
f 59/169/2 2/170/2 1/171/2 60/172/2 
s 8
f 60/173/12 1/9/3 57/174/3 56/175/12 
s 16
f 59/176/9 60/177/9 56/178/9 55/179/9 
s 32
f 2/18/5 59/180/5 55/181/5 58/182/5 
s 64
f 1/22/6 2/21/6 58/183/6 57/184/6 
# 48 polygons

#
# object Box3694
#

v  -5.4037 60.0000 -27.1831
v  -5.4037 60.0000 -95.2613
v  6.5962 60.0000 -95.2613
v  6.5962 60.0000 -27.1831
v  -5.4037 62.0000 -27.1831
v  6.5962 62.0000 -27.1831
v  6.5962 62.0000 -95.2613
v  -5.4037 62.0000 -95.2613
# 8 vertices

vn 0.0000 -1.0000 0.0000
vn -0.0000 1.0000 -0.0000
vn 0.0000 -0.0000 -1.0000
vn -1.0000 -0.0000 -0.0000
vn -0.0000 0.0000 1.0000
vn 1.0000 0.0000 0.0000
# 6 vertex normals

vt 1.6551 0.9926 0.4590
vt -0.5355 0.9926 0.4590
vt -0.5355 0.2991 0.4590
vt 1.6551 0.2991 0.4590
vt -0.6551 0.9926 0.5684
vt -0.6551 0.2991 0.5684
vt 1.5355 0.2991 0.5684
vt 1.5355 0.9926 0.5684
vt 0.9926 0.5684 1.5355
vt 0.2991 0.5684 1.5355
vt 0.2991 0.4590 1.5355
vt 0.9926 0.4590 1.5355
vt 1.6551 0.5684 0.9926
vt -0.5355 0.5684 0.9926
vt -0.5355 0.4590 0.9926
vt 1.6551 0.4590 0.9926
vt 0.7009 0.5684 -0.6551
vt 0.0074 0.5684 -0.6551
vt 0.0074 0.4590 -0.6551
vt 0.7009 0.4590 -0.6551
vt 1.5355 0.5684 0.2991
vt -0.6551 0.5684 0.2991
vt -0.6551 0.4590 0.2991
vt 1.5355 0.4590 0.2991
# 24 texture coords

g Box3694
usemtl wire_006135113
s 2
f 61/185/13 62/186/13 63/187/13 64/188/13 
s 4
f 65/189/14 66/190/14 67/191/14 68/192/14 
s 8
f 68/193/15 67/194/15 63/195/15 62/196/15 
s 16
f 65/197/16 68/198/16 62/199/16 61/200/16 
s 32
f 66/201/17 65/202/17 61/203/17 64/204/17 
s 64
f 67/205/18 66/206/18 64/207/18 63/208/18 
# 6 polygons

#
# object Box3695
#

v  6.5961 60.0000 -95.2613
v  6.4261 60.0000 -95.2613
v  6.4261 60.0000 -27.1831
v  6.5961 60.0000 -27.1831
v  6.5961 30.0000 -95.2613
v  6.5961 30.0000 -27.1831
v  6.4261 30.0000 -27.1831
v  6.4261 30.0000 -95.2613
# 8 vertices

vn -0.0000 1.0000 -0.0000
vn 0.0000 -1.0000 0.0000
vn 0.0000 -0.0000 -1.0000
vn -1.0000 -0.0000 -0.0000
vn -0.0000 0.0000 1.0000
vn 1.0000 0.0000 0.0000
# 6 vertex normals

vt 0.4974 -0.8687 0.9603
vt 0.5024 -0.8687 0.9603
vt 0.5025 1.2645 0.9603
vt 0.4975 1.2645 0.9603
vt 0.5026 -0.8687 0.0397
vt 0.5025 1.2645 0.0397
vt 0.4975 1.2645 0.0397
vt 0.4976 -0.8687 0.0397
vt 0.4974 0.9603 -0.8687
vt 0.4974 0.0397 -0.8687
vt 0.5024 0.0397 -0.8687
vt 0.5024 0.9603 -0.8687
vt -0.8687 0.9603 0.5024
vt -0.8687 0.0397 0.5024
vt 1.2645 0.0397 0.5025
vt 1.2645 0.9603 0.5025
vt 0.4975 0.9603 1.2645
vt 0.4975 0.0397 1.2645
vt 0.5025 0.0397 1.2645
vt 0.5025 0.9603 1.2645
vt -0.2645 0.9603 0.4975
vt -0.2645 0.0397 0.4975
vt 1.8687 0.0397 0.4974
vt 1.8687 0.9603 0.4974
# 24 texture coords

g Box3695
usemtl wire_166229229
s 2
f 69/209/19 70/210/19 71/211/19 72/212/19 
s 4
f 73/213/20 74/214/20 75/215/20 76/216/20 
s 8
f 69/217/21 73/218/21 76/219/21 70/220/21 
s 16
f 70/221/22 76/222/22 75/223/22 71/224/22 
s 32
f 71/225/23 75/226/23 74/227/23 72/228/23 
s 64
f 72/229/24 74/230/24 73/231/24 69/232/24 
# 6 polygons

#
# object Box3726
#

v  6.5169 59.9797 -95.1485
v  6.5169 59.9797 -27.2624
v  5.1754 59.9797 -27.2624
v  5.1754 59.9797 -95.1485
v  6.5962 60.1722 -95.2277
v  5.0962 60.1722 -95.2277
v  5.0962 60.1722 -27.1831
v  6.5962 60.1722 -27.1831
v  6.5962 59.9934 -95.2277
v  5.0962 59.9934 -95.2277
v  5.0962 59.9934 -27.1831
v  6.5962 59.9934 -27.1831
v  6.5169 59.9934 -27.2624
v  6.5169 59.9934 -95.1485
v  5.1754 59.9934 -27.2624
v  5.1754 59.9934 -95.1485
# 16 vertices

vn 0.0000 -1.0000 0.0000
vn -0.0000 1.0000 -0.0000
vn 0.0000 -0.0000 -1.0000
vn -1.0000 -0.0000 -0.0000
vn -0.0000 0.0000 1.0000
vn 1.0000 0.0000 0.0000
# 6 vertex normals

vt 1.0000 0.0000 0.0000
vt 1.0000 1.0000 0.0000
vt 0.0000 1.0000 0.0000
vt 0.0000 0.0000 0.0000
# 4 texture coords

g Box3726
usemtl wire_229154215
s 2
f 77/233/25 78/234/25 79/235/25 80/236/25 
s 4
f 81/236/26 82/233/26 83/234/26 84/235/26 
s 8
f 85/236/27 86/233/27 82/234/27 81/235/27 
s 16
f 86/236/28 87/233/28 83/234/28 82/235/28 
s 32
f 87/236/29 88/233/29 84/234/29 83/235/29 
s 64
f 88/236/30 85/233/30 81/234/30 84/235/30 
s off
f 85/233/25 88/234/25 89/234/25 90/233/25 
f 88/234/25 87/235/25 91/235/25 89/234/25 
f 87/235/25 86/236/25 92/236/25 91/235/25 
f 86/236/25 85/233/25 90/233/25 92/236/25 
f 90/233/30 89/234/30 78/234/30 77/233/30 
f 89/234/29 91/235/29 79/235/29 78/234/29 
f 91/235/28 92/236/28 80/236/28 79/235/28 
f 92/236/27 90/233/27 77/233/27 80/236/27 
# 14 polygons

